<?xml version="1.0" encoding="utf-8"?>
<!-- Generator: Adobe Illustrator 21.0.0, SVG Export Plug-In . SVG Version: 6.00 Build 0)  -->
<svg version="1.0" id="Layer_1" xmlns="http://www.w3.org/2000/svg" xmlns:xlink="http://www.w3.org/1999/xlink" x="0px" y="0px"
	 viewBox="0 0 105 11" style="enable-background:new 0 0 105 11;" xml:space="preserve">
<style type="text/css">
	.st0{fill:#FFFFFF;}
</style>
<path class="st0" d="M6.4,9C6.4,9,6.4,9.1,6.4,9L5.2,9.1C5.2,9.1,5.1,9,5.1,9L3.6,6.7c0,0-0.1-0.1-0.1-0.1H2.2c-0.1,0-0.1,0-0.1,0.1
	V9c0,0.1,0,0.1-0.1,0.1H1.1C1,9.1,1,9,1,9V2.1C1,2,1,1.9,1.1,1.9h2.6c1.4,0,2.5,0.5,2.5,2.2c0,1.2-0.6,2-1.4,2.3
	C5.2,7.1,6.4,8.9,6.4,9C6.4,9,6.4,9,6.4,9 M3.5,2.8H2.2c-0.1,0-0.1,0-0.1,0.1v2.9c0,0.1,0,0.1,0.1,0.1h1.2c1,0,1.6-0.4,1.6-1.6
	C5,3.2,4.4,2.8,3.5,2.8"/>
<path class="st0" d="M10.2,9.2c-1.5,0-3-1-3-3C7.2,4,8.5,3,10.3,3c1.7,0,3,1,3,3.1C13.3,8.2,11.9,9.2,10.2,9.2 M10.2,3.8
	c-1,0-1.9,0.6-1.9,2.3c0,1.5,0.8,2.2,1.9,2.2s1.9-0.7,1.9-2.2C12.2,4.4,11.3,3.8,10.2,3.8"/>
<path class="st0" d="M18.2,7.8c-0.3,1-0.9,2.4-1.7,3.3c0,0-0.1,0.1-0.1,0.1h-1c0,0-0.1,0-0.1-0.1c0,0,0,0,0-0.1
	c0.3-0.3,1.2-1.2,1.2-1.8v0c0-0.1,0-0.1-0.1-0.1h-0.6c-0.1,0-0.1,0-0.1-0.1l-1.9-5.8c0,0,0,0,0,0c0,0,0.1-0.1,0.1-0.1h1
	c0.1,0,0.1,0,0.1,0.1l1.6,5c0,0.1,0.1,0.1,0.1,0.1h0.2c0,0,0.1,0,0.1-0.1l1.4-5c0,0,0.1-0.1,0.1-0.1h0.9c0,0,0.1,0,0.1,0.1v0
	L18.2,7.8z"/>
<path class="st0" d="M25.4,8.8c0,0.1,0,0.1-0.1,0.1c-0.8,0.1-2,0.2-2.5,0.2c-1.2,0-2.6-0.4-2.6-2.2c0-1.7,1.6-1.8,2.5-1.8
	c0.4,0,1.3,0.1,1.6,0.1c0-1.2-0.7-1.4-1.8-1.4c-0.6,0-1.1,0-1.5,0.1h0c-0.1,0-0.1,0-0.1-0.1l-0.1-0.6v0c0-0.1,0-0.1,0.1-0.1
	C21.4,3.1,22.2,3,22.6,3c1.6,0,2.7,0.5,2.7,2.1V8.8z M24.3,6.2c0-0.1,0-0.1-0.1-0.1h-1.4c-0.7,0-1.5,0.1-1.5,1c0,1,0.8,1.2,1.4,1.2
	h1.5c0.1,0,0.1,0,0.1-0.1V6.2z"/>
<path class="st0" d="M27.9,9.1H27c-0.1,0-0.1,0-0.1-0.1V1.1C26.9,1,26.9,1,27,1l0.9-0.1C28,0.9,28,0.9,28,1v8C28,9,28,9.1,27.9,9.1"
	/>
<path class="st0" d="M35.7,9.1h-2.4c-0.1,0-0.1,0-0.1-0.1V2.1c0-0.1,0-0.1,0.1-0.1h2.6c1.9,0,3.4,0.7,3.4,3.3
	C39.2,8.2,37.7,9.1,35.7,9.1 M35.9,2.8h-1.5c-0.1,0-0.1,0-0.1,0.1v5.2c0,0.1,0,0.1,0.1,0.1h1.5c1.2,0,2.2-0.8,2.2-2.8
	C38.1,3.5,37.2,2.8,35.9,2.8"/>
<path class="st0" d="M45.3,8.9c-0.6,0.1-1.5,0.3-2.3,0.3c-1.8,0-2.7-0.6-2.7-2.4V3.2c0-0.1,0-0.1,0.1-0.1h0.9c0.1,0,0.1,0,0.1,0.1
	v3.6c0,1,0.5,1.4,1.6,1.4c0.4,0,0.9,0,1.2-0.1c0.1,0,0.1,0,0.1-0.1V3.2c0-0.1,0-0.1,0.1-0.1h0.9c0.1,0,0.1,0,0.1,0.1v5.6
	C45.5,8.8,45.4,8.9,45.3,8.9"/>
<path class="st0" d="M50.1,8.9C50.1,9,50.1,9,50,9c-0.5,0.1-0.7,0.1-1.1,0.1c-1,0-1.4-0.4-1.4-1.5V3.9c0-0.1,0-0.1-0.1-0.1h-0.7
	c-0.1,0-0.1,0-0.1-0.1V3.2c0-0.1,0-0.1,0.1-0.1h0.7c0.1,0,0.1,0,0.1-0.1V1.6c0-0.1,0-0.1,0.1-0.1l0.9-0.1c0.1,0,0.1,0,0.1,0.1V3
	c0,0.1,0,0.1,0.1,0.1h1.1c0.1,0,0.1,0,0.1,0.1v0.5c0,0.1,0,0.1-0.1,0.1h-1.1c-0.1,0-0.1,0-0.1,0.1v3.4c0,0.6,0.1,0.9,0.9,0.9h0.6
	c0.1,0,0.1,0,0.1,0.1L50.1,8.9z"/>
<path class="st0" d="M55.6,9c-0.4,0-1,0.1-1.6,0.1c-2,0-3.2-1-3.2-3.1c0-2.2,1.6-3,3.2-3c0.5,0,1.2,0.1,1.6,0.1c0.1,0,0.1,0,0.1,0.1
	l-0.1,0.6c0,0.1,0,0.1-0.1,0.1h0c-0.4,0-0.8,0-1.3,0C52.9,3.9,52,4.5,52,6c0,1.6,0.9,2.2,2.2,2.2c0.6,0,1.1,0,1.4,0h0
	c0.1,0,0.1,0,0.1,0.1v0.7C55.7,9,55.7,9,55.6,9"/>
<path class="st0" d="M62.2,9c0,0.1,0,0.1-0.1,0.1h-0.9c-0.1,0-0.1,0-0.1-0.1V5.5c0-1.1-0.6-1.6-1.6-1.6c-0.6,0-0.9,0-1.3,0.1
	C58,4,58,4,58,4.1V9c0,0.1,0,0.1-0.1,0.1H57c-0.1,0-0.1,0-0.1-0.1V1.1C56.9,1,56.9,1,57,1l0.9-0.1C58,0.9,58,0.9,58,1v2.1
	c0,0.1,0.1,0.1,0.1,0.1c0.3,0,1-0.1,1.5-0.1c1.8,0,2.6,0.7,2.6,2.5V9z"/>
<path class="st0" d="M73.1,9C73.1,9,73.1,9.1,73.1,9l-1,0.1C72,9.1,72,9,72,9l-0.6-2.3c0-0.1,0-0.1-0.1-0.1h-2.8
	c-0.1,0-0.1,0-0.1,0.1L67.7,9c0,0.1-0.1,0.1-0.1,0.1h-0.8c-0.1,0-0.1,0-0.1-0.1c0,0,0,0,0,0L68.5,2c0-0.1,0.1-0.1,0.1-0.1h2.6
	c0.1,0,0.1,0,0.1,0.1L73.1,9C73.1,9,73.1,9,73.1,9 M70.3,2.9C70.3,2.8,70.3,2.8,70.3,2.9l-0.9-0.1c-0.1,0-0.1,0-0.1,0.1l-0.8,2.8v0
	c0,0,0,0.1,0.1,0.1H71c0,0,0.1,0,0.1-0.1v0L70.3,2.9z"/>
<path class="st0" d="M75.2,2c0,0.1,0,0.1-0.1,0.1h-0.9c-0.1,0-0.1,0-0.1-0.1V1.1c0-0.1,0-0.1,0.1-0.1h0.9c0.1,0,0.1,0,0.1,0.1V2z
	 M75.1,9.1h-0.9c-0.1,0-0.1,0-0.1-0.1V3.2c0-0.1,0-0.1,0.1-0.1h0.9c0.1,0,0.1,0,0.1,0.1V9C75.2,9,75.2,9.1,75.1,9.1"/>
<path class="st0" d="M79.4,3.9c-0.5,0-0.8,0-1.3,0.1c-0.1,0-0.1,0-0.1,0.1V9c0,0.1,0,0.1-0.1,0.1h-0.9C77,9.1,77,9,77,9V3.4
	c0-0.1,0-0.1,0.1-0.1c0.7-0.1,1.5-0.2,2.4-0.2c0.1,0,0.1,0,0.1,0.1v0.7C79.5,3.9,79.5,3.9,79.4,3.9"/>
<path class="st0" d="M81.7,9.1h-0.9c-0.1,0-0.1,0-0.1-0.1V1.1c0-0.1,0-0.1,0.1-0.1l0.9-0.1c0.1,0,0.1,0,0.1,0.1v8
	C81.7,9,81.7,9.1,81.7,9.1"/>
<path class="st0" d="M84.6,2c0,0.1,0,0.1-0.1,0.1h-0.9c-0.1,0-0.1,0-0.1-0.1V1.1c0-0.1,0-0.1,0.1-0.1h0.9c0.1,0,0.1,0,0.1,0.1V2z
	 M84.5,9.1h-0.9c-0.1,0-0.1,0-0.1-0.1V3.2c0-0.1,0-0.1,0.1-0.1h0.9c0.1,0,0.1,0,0.1,0.1V9C84.6,9,84.6,9.1,84.5,9.1"/>
<path class="st0" d="M91.5,9.1h-0.9c-0.1,0-0.1,0-0.1-0.1V5.4c0-1.2-0.6-1.5-1.7-1.5c-0.4,0-0.9,0-1.2,0.1c-0.1,0-0.1,0-0.1,0.1V9
	c0,0.1,0,0.1-0.1,0.1h-0.9c-0.1,0-0.1,0-0.1-0.1V3.4c0-0.1,0-0.1,0.1-0.1C87.3,3.2,88.2,3,88.8,3c1.7,0,2.8,0.5,2.8,2.3V9
	C91.5,9,91.5,9.1,91.5,9.1"/>
<path class="st0" d="M98.4,6.5H94c-0.1,0-0.1,0-0.1,0.1c0,1.3,0.9,1.6,2.2,1.6c0.5,0,1,0,1.6-0.1c0,0,0.1,0,0.1,0.1v0l-0.1,0.6
	C97.7,9,97.7,9,97.6,9c-0.5,0.1-1.1,0.1-1.8,0.1c-1.8,0-3-0.7-3-3.1c0-2.3,1.3-3,2.9-3c1.9,0,2.8,1.1,2.8,3.4
	C98.5,6.5,98.5,6.5,98.4,6.5 M95.6,3.9c-1,0-1.7,0.6-1.7,1.7c0,0.1,0,0.1,0.1,0.1h3.3c0.1,0,0.1,0,0.1-0.1
	C97.4,4.4,96.7,3.9,95.6,3.9"/>
<path class="st0" d="M101.5,9.1c-0.5,0-1.1-0.1-1.7-0.2c-0.1,0-0.1,0-0.1-0.1V8.2c0-0.1,0-0.1,0.1-0.1h0c0.3,0,1,0.1,1.5,0.1
	c0.7,0,1.6,0,1.6-0.8c0-1.4-3.3-0.8-3.3-2.8c0-1.2,1.3-1.5,2.4-1.5c0.5,0,1.1,0.1,1.6,0.2c0.1,0,0.1,0.1,0.1,0.1l-0.1,0.6
	c0,0,0,0.1-0.1,0.1h0c-0.3,0-0.9-0.1-1.5-0.1c-0.6,0-1.3,0-1.3,0.7c0,1.1,3.3,0.6,3.3,2.7C104,8.6,103,9.1,101.5,9.1"/>
</svg>
