<?xml version="1.0" encoding="utf-8"?>
<!-- Generator: Adobe Illustrator 21.0.0, SVG Export Plug-In . SVG Version: 6.00 Build 0)  -->
<svg version="1.0" xmlns="http://www.w3.org/2000/svg" xmlns:xlink="http://www.w3.org/1999/xlink" x="0px" y="0px"
	 viewBox="0 0 188 117" style="enable-background:new 0 0 188 117;" xml:space="preserve">
<style type="text/css">
	.st0{fill:#FFFFFF;}
	.st1{fill:#0095DB;}
	.st2{fill:#193076;}
</style>
<g id="Layer_2">
	<g id="Layer_5">
		<rect x="184" y="56.3" class="st0" width="15.8" height="71"/>
	</g>
	<g id="Layer_6">
		<rect x="105" y="117" class="st0" width="93.5" height="10.3"/>
	</g>
	<g id="Layer_4">
	</g>
	<path class="st0" d="M105,117c4-0.1,9.7,0.8,15.3-5.2c5.6-6.1,44.8-51,46.3-52.5c1.4-1.5,3.7-3,6.9-3H188V117L105,117z"/>
</g>
<g id="Layer_3">
	<path class="st1" d="M154.2,93h0.9V92h0.9v-0.9h-0.9v-0.9h-0.9v0.9h-0.9V92h0.9V93z M160.1,92.7c-0.9,0-1.6,0.7-1.6,1.6
		c0,0.9,0.7,1.6,1.6,1.6c0.9,0,1.6-0.7,1.6-1.6C161.7,93.5,161,92.7,160.1,92.7 M149.1,98.2h11v-1.8h-11V98.2z M150.7,94.3
		c0-0.9-0.7-1.6-1.6-1.6c-0.9,0-1.6,0.7-1.6,1.6c0,0.9,0.7,1.6,1.6,1.6C150,95.9,150.7,95.2,150.7,94.3 M154.8,94.3
		c0,0.9,0.7,1.6,1.6,1.6c0.9,0,1.6-0.7,1.6-1.6c0-0.9-0.7-1.6-1.6-1.6C155.6,92.7,154.8,93.5,154.8,94.3 M152.8,95.9
		c0.9,0,1.6-0.7,1.6-1.6c0-0.9-0.7-1.6-1.6-1.6c-0.9,0-1.6,0.7-1.6,1.6C151.2,95.2,151.9,95.9,152.8,95.9 M164.7,100.1l-1.4,4.1
		l-1.4-4.1h-4.6v7.3h2.7v-5.5l1.8,5.5h2.7l1.8-5.5v5.5h2.7v-7.3H164.7z M151.9,100.1h-2.7v7.3h7.3v-1.8h-4.6V100.1z M148.2,100.1
		h-2.7l-2.7,2.7v-2.7H140v7.3h2.7v-2.7l2.7,2.7h3.7l-4.1-4.1L148.2,100.1z"/>
	<path class="st2" d="M182.2,100.7L182.2,100.7c0.8,0.8,1.4,2,1.5,3.3c0.2,2.8-1.9,5.3-4.8,5.5c-1.3,0.1-2.6-0.3-3.5-1.1l0,0
		c1,0.9,2.4,1.5,3.9,1.4c2.8-0.2,5-2.7,4.8-5.5C183.9,102.9,183.2,101.6,182.2,100.7"/>
	<path class="st2" d="M173.1,106.6c-0.2,0.1-0.2,0.2-0.1,0.4c0.1,0.2,0.2,0.3,0.3,0.2c0.1,0,0.1-0.1,0.1-0.4l0-0.1
		c0-0.2-0.1-0.3,0-0.4c0-0.1,0.1-0.2,0.2-0.2c0.2-0.1,0.4,0,0.6,0.4c0.1,0.4,0.1,0.6-0.2,0.7l-0.1-0.2c0.2-0.1,0.2-0.3,0.1-0.5
		c-0.1-0.2-0.2-0.3-0.4-0.2c-0.1,0-0.1,0.1-0.1,0.4l0,0.1l0,0.1c0,0.2,0,0.2,0,0.3c0,0.1-0.1,0.2-0.2,0.2c-0.2,0.1-0.4,0-0.5-0.3
		c-0.1-0.3-0.1-0.6,0.2-0.7L173.1,106.6z"/>
	<polygon class="st2" points="172.9,104.7 173.7,104.1 173.7,104.3 173.1,104.9 173.3,105.1 173.7,105.1 173.7,105.3 172.4,105.3 
		172.4,105.1 172.9,105.1 173,105.1 173.1,105.1 173,105.1 173,105 172.4,104.4 172.4,104.1 	"/>
	<path class="st2" d="M173.5,102.7l0.5,0.2L174,103l-0.5-0.2l-0.9,0.3l0.1-0.2l0.6-0.2l0.1,0c0,0,0,0,0.1,0c0-0.1-0.1-0.1-0.1-0.1
		l-0.4-0.5l0.1-0.2L173.5,102.7z"/>
	<polygon class="st2" points="174.4,100.2 174.1,100.6 175,101.3 174.8,101.5 173.9,100.8 173.7,101.2 173.5,101 174.2,100.1 	"/>
	<polygon class="st2" points="176.2,99 175.5,99.4 175.7,99.6 176.3,99.2 176.4,99.4 175.8,99.8 176,100.1 176.6,99.7 176.8,99.9 
		175.8,100.5 175.1,99.3 176.1,98.8 	"/>
	<path class="st2" d="M178.8,99.5l-0.3,0l-0.2-0.3l-0.5,0.1l-0.1,0.3l-0.3,0.1l0.3-1.4l0.3-0.1L178.8,99.5z M178,98.8
		c-0.1-0.1-0.1-0.2-0.1-0.3c0,0.1,0,0.2-0.1,0.3l-0.1,0.3l0.4-0.1L178,98.8z"/>
	<path class="st2" d="M180.9,99.9l-0.3-0.1l0.1-0.4c0,0,0-0.1,0.1-0.2c0-0.1,0-0.1,0.1-0.2c0-0.1,0-0.1,0.1-0.2l0-0.1
		c-0.1,0.1-0.1,0.2-0.2,0.3c0,0-0.1,0.1-0.1,0.1l-0.4,0.5l-0.2-0.1L180,99c0,0,0-0.1,0-0.1c0-0.1,0-0.1,0-0.2c0,0,0-0.1,0-0.2l0,0.2
		c0,0.2-0.1,0.3-0.1,0.5l-0.1,0.4l-0.3,0l0.3-1.3l0.4,0.1l0.1,0.6c0,0.1,0,0.3,0,0.4c0-0.1,0.1-0.1,0.1-0.2c0-0.1,0.1-0.1,0.1-0.2
		l0.3-0.5l0.4,0.1L180.9,99.9z"/>
	<path class="st2" d="M178.4,102.5c-0.2,0.1-0.5,0.4-0.8,0.7l-0.4,0.3c-0.3-0.1-0.6-0.1-0.9-0.1c-0.6,0-1.2,0.2-1.5,0.5
		c-0.1,0.1-0.2,0.2-0.2,0.3c0,0.3,0.4,0.5,0.5,0.5c0.6,0.2,1.1,0.2,1.6-0.2c0.3-0.2,0.6-0.5,0.9-0.8c0.2,0,0.4,0.1,0.7,0.2l0.2,0.1
		c-0.3,0.3-0.6,0.6-0.9,0.9l0,0c-0.4,0.3-0.7,0.6-1.1,0.7c-0.3,0.1-0.5,0-0.6,0c0,0,0,0,0,0c0.2,0.2,0.5,0.3,0.9,0.3
		c0.4,0,0.8-0.3,1.2-0.7l0.6-0.6l0.4-0.4c0,0,0.8,0.2,0.8,0.2c0,0,0,0,0,0c0,0-0.5,0.5-0.5,0.5l-0.4,0.4c-0.5,0.4-0.7,0.7-1,0.9
		c-0.4,0.3-0.8,0.5-1.1,0.5c-0.2,0-0.4,0-0.6-0.1c0,0,0,0,0,0c0.2,0.2,0.5,0.4,1,0.4c0.5,0,1-0.3,1.7-0.9c0.3-0.3,0.7-0.7,1-1
		l0.5-0.6c0.4,0.1,0.7,0.1,1,0.1c0.5,0,1-0.3,1-0.5c0-0.2-0.2-0.3-0.3-0.4c-0.1-0.1-0.3-0.2-0.6-0.2c-0.4,0-0.8,0.2-1.2,0.5
		l-0.3,0.2c0,0-0.1,0-0.1,0l-0.8-0.2c0.2-0.2,0.4-0.4,0.6-0.5c0.4-0.4,0.9-0.5,1.2-0.5c0.2,0,0.5,0,0.7,0.1c0,0,0,0,0,0
		c-0.4-0.3-0.7-0.4-1-0.4c-0.3,0-0.7,0.1-1.2,0.5c-0.2,0.2-0.5,0.4-0.8,0.7c0,0-0.4-0.1-0.4-0.1l-0.1,0l-0.4-0.1
		c0,0,0.2-0.2,0.2-0.2c0.3-0.3,0.5-0.5,0.7-0.7c0.7-0.6,1.2-0.7,1.5-0.7c0.4,0,0.6,0.1,0.8,0.2c0,0,0,0,0,0
		c-0.4-0.4-0.7-0.5-1.2-0.5C179.4,101.8,178.9,102,178.4,102.5 M175.5,104.7c-0.2,0-0.3-0.1-0.3-0.3c0,0,0-0.6,1.3-0.7
		c0.2,0,0.3,0,0.6,0c0,0-0.2,0.1-0.2,0.1l-0.1,0.1C176.5,104.2,176,104.7,175.5,104.7 M180.9,104.2c0.4-0.3,0.7-0.4,0.9-0.4
		c0.1,0,0.3,0,0.3,0.2c0,0.1-0.1,0.3-0.4,0.4c-0.2,0.1-0.6,0.1-1,0.1C180.7,104.3,180.8,104.2,180.9,104.2"/>
	<path class="st2" d="M181.5,98.8c0-0.1,0.2-0.2,0.3-0.1c0.1,0,0.2,0.2,0.1,0.3c0,0.1-0.2,0.2-0.3,0.1
		C181.5,99.1,181.4,99,181.5,98.8 M181.8,99c0-0.1,0-0.2-0.1-0.2c-0.1,0-0.2,0-0.3,0.1c0,0.1,0,0.2,0.1,0.3
		C181.7,99.1,181.8,99.1,181.8,99 M181.7,99.1L181.7,99.1l0-0.2l0,0l-0.1,0.1l0,0l0.1-0.2l0.1,0c0,0,0.1,0.1,0,0.1c0,0-0.1,0-0.1,0
		L181.7,99.1z M181.7,98.9C181.7,98.9,181.7,99,181.7,98.9C181.8,98.9,181.7,98.9,181.7,98.9L181.7,98.9L181.7,98.9L181.7,98.9z"/>
</g>
</svg>
